<svg width="26" height="26" viewBox="0 0 26 26" fill="none" xmlns="http://www.w3.org/2000/svg">
<path d="M24.25 18H6.75C6.41848 18 6.10054 17.8683 5.86612 17.6339C5.6317 17.3995 5.5 17.0815 5.5 16.75C5.5 16.4185 5.6317 16.1005 5.86612 15.8661C6.10054 15.6317 6.41848 15.5 6.75 15.5H19.8C20.6358 15.5 21.4477 15.2209 22.1067 14.7068C22.7657 14.1927 23.2341 13.4732 23.4375 12.6625L25.5 4.55C25.5468 4.36551 25.5509 4.17277 25.5119 3.98646C25.4729 3.80016 25.3919 3.62523 25.275 3.475C25.1534 3.32092 24.9973 3.19762 24.8192 3.1151C24.6411 3.03258 24.4461 2.99315 24.25 3H6.45C6.19211 2.27056 5.71491 1.63875 5.08383 1.19117C4.45275 0.743598 3.69868 0.502174 2.925 0.5H1.75C1.41848 0.5 1.10054 0.631696 0.866116 0.866116C0.631696 1.10054 0.5 1.41848 0.5 1.75C0.5 2.08152 0.631696 2.39946 0.866116 2.63388C1.10054 2.8683 1.41848 3 1.75 3H2.925C3.21054 2.99168 3.49032 3.08142 3.71776 3.25427C3.94519 3.42712 4.10656 3.67266 4.175 3.95L4.25 4.55L6.4125 13C5.41794 13.0448 4.48189 13.4828 3.81028 14.2177C3.13866 14.9526 2.78649 15.9242 2.83125 16.9188C2.87601 17.9133 3.31402 18.8494 4.04892 19.521C4.78383 20.1926 5.75544 20.5448 6.75 20.5H6.975C6.76942 21.0664 6.70336 21.674 6.78241 22.2714C6.86147 22.8687 7.08331 23.4383 7.42915 23.9317C7.77499 24.4251 8.23464 24.828 8.76919 25.1061C9.30374 25.3842 9.89743 25.5294 10.5 25.5294C11.1026 25.5294 11.6963 25.3842 12.2308 25.1061C12.7654 24.828 13.225 24.4251 13.5709 23.9317C13.9167 23.4383 14.1385 22.8687 14.2176 22.2714C14.2966 21.674 14.2306 21.0664 14.025 20.5H16.975C16.7694 21.0664 16.7034 21.674 16.7824 22.2714C16.8615 22.8687 17.0833 23.4383 17.4291 23.9317C17.775 24.4251 18.2346 24.828 18.7692 25.1061C19.3037 25.3842 19.8974 25.5294 20.5 25.5294C21.1026 25.5294 21.6963 25.3842 22.2308 25.1061C22.7654 24.828 23.225 24.4251 23.5709 23.9317C23.9167 23.4383 24.1385 22.8687 24.2176 22.2714C24.2966 21.674 24.2306 21.0664 24.025 20.5H24.25C24.5815 20.5 24.8995 20.3683 25.1339 20.1339C25.3683 19.8995 25.5 19.5815 25.5 19.25C25.5 18.9185 25.3683 18.6005 25.1339 18.3661C24.8995 18.1317 24.5815 18 24.25 18ZM22.65 5.5L21.0125 12.05C20.9441 12.3273 20.7827 12.5729 20.5553 12.7457C20.3278 12.9186 20.048 13.0083 19.7625 13H8.975L7.1 5.5H22.65ZM10.5 23C10.2528 23 10.0111 22.9267 9.80554 22.7893C9.59997 22.652 9.43976 22.4568 9.34515 22.2284C9.25054 21.9999 9.22579 21.7486 9.27402 21.5061C9.32225 21.2637 9.4413 21.0409 9.61612 20.8661C9.79093 20.6913 10.0137 20.5723 10.2561 20.524C10.4986 20.4758 10.7499 20.5005 10.9784 20.5952C11.2068 20.6898 11.402 20.85 11.5393 21.0555C11.6767 21.2611 11.75 21.5028 11.75 21.75C11.75 22.0815 11.6183 22.3995 11.3839 22.6339C11.1495 22.8683 10.8315 23 10.5 23ZM20.5 23C20.2528 23 20.0111 22.9267 19.8055 22.7893C19.6 22.652 19.4398 22.4568 19.3451 22.2284C19.2505 21.9999 19.2258 21.7486 19.274 21.5061C19.3222 21.2637 19.4413 21.0409 19.6161 20.8661C19.7909 20.6913 20.0137 20.5723 20.2561 20.524C20.4986 20.4758 20.7499 20.5005 20.9784 20.5952C21.2068 20.6898 21.402 20.85 21.5393 21.0555C21.6767 21.2611 21.75 21.5028 21.75 21.75C21.75 22.0815 21.6183 22.3995 21.3839 22.6339C21.1495 22.8683 20.8315 23 20.5 23Z" fill="#CDCDCD"/>
</svg>
