<?xml version="1.0" encoding="utf-8"?>
<!-- Generator: Adobe Illustrator 19.2.1, SVG Export Plug-In . SVG Version: 6.00 Build 0)  -->
<svg version="1.1" id="layer" xmlns="http://www.w3.org/2000/svg" xmlns:xlink="http://www.w3.org/1999/xlink" x="0px" y="0px"
	 viewBox="0 0 652 652" style="enable-background:new 0 0 652 652;" xml:space="preserve">
<style type="text/css">
	.st0{fill:#19235B;}
</style>
<path class="st0" d="M108.3,326.1c0,6.9-5.6,12.5-12.5,12.5h-69v-25.1h69C102.7,313.6,108.3,319.2,108.3,326.1 M168,326.1
	c0-32.9-26.7-59.6-59.6-59.6H26.8v25.1h33h48.6h0h0c19.1,0,34.5,15.5,34.5,34.5c0,19.1-15.5,34.5-34.5,34.5h0H59.8h-33v25.1h81.6
	C141.3,385.7,168,359,168,326.1"/>
<path d="M199.9,334.1v13.8h29.2c0.8,0,1.6,0.7,1.6,1.6v8.8c0,0.8-0.7,1.6-1.6,1.6h-40.6c-0.8,0-1.6-0.7-1.6-1.6V297
	c0-0.8,0.7-1.6,1.6-1.6h40.6c0.8,0,1.6,0.7,1.6,1.6v8.8c0,0.8-0.7,1.6-1.6,1.6h-29.2v14.7h22.5c0.8,0,1.6,0.7,1.6,1.6v8.8
	c0,0.8-0.7,1.6-1.6,1.6H199.9z M269,295.4c-0.8,0-1.6,0.7-1.6,1.6v17.6c-2.2-1-5.2-1.6-8.3-1.6c-18.5,0-22.9,13.6-22.9,23.8
	c0,9.8,4.9,23.8,22,23.8c3.8,0,9.4-1.7,12-4l0.5,1.7c0.3,0.8,1.1,1.5,2,1.5h5.4c0.8,0,1.6-0.7,1.6-1.6v-61.3c0-0.8-0.7-1.6-1.6-1.6
	H269z M267.4,345.8c-1.2,1.7-4.5,3.6-8.3,3.6c-9.5,0-10.6-8.9-10.6-12.6c0-4.5,1.3-12.7,11.3-12.7c2.1,0,5.7,1,7.5,2.2V345.8z
	 M303.1,358.2c0,0.8,0.7,1.6,1.6,1.6h10c0.8,0,1.6-0.7,1.6-1.6v-50.8h16c0.8,0,1.6-0.7,1.6-1.6V297c0-0.8-0.7-1.6-1.6-1.6h-44.9
	c-0.8,0-1.6,0.7-1.6,1.6v8.8c0,0.8,0.7,1.6,1.6,1.6h15.8V358.2z M370,337.4c0.2-1.5,0.3-2.9,0.3-4.4c0-11.9-6.8-19.8-19-19.8
	c-17.6,0-23,13.9-23,23.5c0,9.9,5.4,23.6,23,23.6c6.2,0,11.2-2.1,16.4-6.1c0.6-0.6,0.8-1.6,0.3-2.3l-4.2-5.8
	c-0.5-0.7-1.5-0.8-2.2-0.4c-3.2,2.1-6.8,3.2-10.2,3.2c-6,0-9.4-4.7-10.1-10.1h27.2C369.3,338.9,370,338.3,370,337.4 M341.6,331.6
	c1.4-4.2,4.6-7.3,9.7-7.3c5.3,0.1,6.6,3.5,6.7,7.3H341.6z M408.6,345.1c-0.6-0.6-1.6-0.6-2.2-0.2c-3,2.6-6.4,3.6-8.9,3.6
	c-5.5,0-10.7-4.2-10.7-11.8c0-6,3.5-12,10.6-12c3.2,0,7.1,1.7,10,4.4c0.6,0.6,1.6,0.6,2.1-0.1l5.1-5.6c0.5-0.6,0.5-1.7-0.1-2.3
	c-4.5-4.7-10-8-17.2-8c-18.4,0-23,13.7-23,23.9c0,9.7,5.5,23.4,23.2,23.4c6.6,0,11.8-2.6,16.2-6.7c0.6-0.6,0.6-1.7,0.1-2.3
	L408.6,345.1z M432.5,359.8c0.8,0,1.6-0.7,1.6-1.6v-30.4c1.2-1.7,4-3.4,7.3-3.5c7.9-0.2,8.7,6.1,8.7,11.8v22.1
	c0,0.8,0.7,1.6,1.6,1.6h9.3c0.8,0,1.6-0.7,1.6-1.6v-22.1c0-10.9-1.9-23-19.6-23c-2.9,0-6.1,0.7-8.8,2.4V297c0-0.8-0.7-1.6-1.6-1.6
	h-9.3c-0.8,0-1.6,0.7-1.6,1.6v61.2c0,0.8,0.7,1.6,1.6,1.6H432.5z M527,358.5c0.3,0.7,1,1.2,1.7,1.2h3.9c0.6,0,1-0.6,0.8-1.2
	l-26.2-63.1c-0.3-0.5-0.7-0.8-1.3-0.8c-0.5,0-1.1,0.4-1.3,0.8l-26.2,63.1c-0.2,0.5,0.2,1.2,0.8,1.2h3.9c0.7,0,1.5-0.5,1.7-1.2
	l6.9-17.2h28L527,358.5z M506,306.8l12.2,30.3h-24.5L506,306.8z M568.9,348.4c0-17.3-27-11.7-27-23.5c0.5-5.8,5.1-7.4,10.7-7.4
	c2.9,0,7.1,1.1,10.5,2.3c0.6,0.3,1.4-0.1,1.7-0.7l0.6-1.5c0.3-0.6,0-1.5-0.6-1.7c-6.2-2.6-11.6-2.8-14.1-2.8
	c-7.8,0-14.1,4.6-14.1,12.3c0,15.8,26.6,9.8,26.6,23.1c0,5-5.3,7.9-11,7.9c-4.6,0-8.6-1.4-12.5-3.1c-0.6-0.3-1.5,0-1.7,0.6l-0.8,1.6
	c-0.3,0.6-0.1,1.5,0.6,1.8c4.6,2.2,9,3.5,15.1,3.5C561.9,360.8,568.9,355.7,568.9,348.4 M580,297.8c-2.2,0-3.8,1.7-3.8,3.9
	c0,2.1,1.6,3.8,3.8,3.8c2.1,0,3.9-1.7,3.9-3.8C583.9,299.5,582.1,297.8,580,297.8 M582.8,315.1c0-0.7-0.5-1.3-1.3-1.3h-3.1
	c-0.7,0-1.3,0.6-1.3,1.3v43.5c0,0.7,0.5,1.3,1.3,1.3h3.1c0.7,0,1.3-0.6,1.3-1.3V315.1z M596,319.9c0.3,0.6,1,1,1.7,0.7
	c4.6-1.7,8.1-2.8,11.4-2.8c7.4-0.2,11.9,1.6,11.9,13.6v1.7c-2.6-0.6-8.2-1.2-11-1.2c-9.3,0-18.7,3.1-18.7,14.6
	c0,4.1,0.9,14.1,15.6,14.1c3.9,0,10.5-1,15.5-7.1l1,5.1c0.2,0.7,0.8,1.3,1.6,1.3h0.5c0.7,0,1.3-0.5,1.3-1.3v-26.7
	c0-9.2-1.1-18.7-17-18.7c-4.6,0-9.4,1.5-13.6,3.2c-0.7,0.4-1,1.1-0.7,1.7L596,319.9z M621,348.2c-1.9,3.5-7.8,7.7-13.9,7.7
	c-5.9,0-10.5-3.3-10.5-9.6c0-8.6,7.7-9.9,14.8-9.9c3.6,0,6.9,0.6,9.6,1.4V348.2z"/>
</svg>
